<svg xmlns="http://www.w3.org/2000/svg" xmlns:xlink="http://www.w3.org/1999/xlink" width="652.81" height="134" viewBox="0 0 652.81 134"><defs><radialGradient id="a" cx="0.5" cy="0.5" r="0.5" gradientUnits="objectBoundingBox"><stop offset="0" stop-color="#d60000"/><stop offset="1" stop-color="#0c0b0b"/></radialGradient></defs><g transform="translate(-768.19 -618)"><path d="M-51.75,136.845a47.668,47.668,0,0,1-18.976-3.9,48.548,48.548,0,0,1-15.5-10.645,49.57,49.57,0,0,1-10.448-15.789A50.169,50.169,0,0,1-100.5,87.173a50.17,50.17,0,0,1,3.831-19.335A49.568,49.568,0,0,1-86.222,52.049,48.548,48.548,0,0,1-70.726,41.4,47.67,47.67,0,0,1-51.75,37.5a47.671,47.671,0,0,1,18.976,3.9,48.546,48.546,0,0,1,15.5,10.645A49.568,49.568,0,0,1-6.831,67.838,50.171,50.171,0,0,1-3,87.173a50.17,50.17,0,0,1-3.831,19.335A49.569,49.569,0,0,1-17.279,122.3a48.547,48.547,0,0,1-15.5,10.645A47.669,47.669,0,0,1-51.75,136.845Zm13.941-34.639a4.8,4.8,0,0,0-4.942,4.625,4.8,4.8,0,0,0,4.942,4.625,4.8,4.8,0,0,0,4.943-4.625A4.8,4.8,0,0,0-37.81,102.205Zm-29.658,0a4.8,4.8,0,0,0-4.943,4.625,4.8,4.8,0,0,0,4.943,4.625,4.8,4.8,0,0,0,4.943-4.625A4.8,4.8,0,0,0-67.468,102.205Zm-9.886-39.318v4.625h4.943V95.267A2.4,2.4,0,0,0-69.94,97.58H-34.8a2.443,2.443,0,0,0,2.4-1.752L-26.22,72.7a2.149,2.149,0,0,0,.074-.561,2.4,2.4,0,0,0-2.472-2.313H-62.525v4.625h30.743l-4.943,18.5H-67.468V65.2a2.4,2.4,0,0,0-2.472-2.313Z" transform="matrix(0.999, -0.035, 0.035, 0.999, 867.321, 596.074)" fill="url(#a)"/><g transform="translate(145 81)"><text transform="translate(738 537)" fill="#d60000" font-size="110" font-family="Inter-ExtraBold, Inter" font-weight="800" letter-spacing="-0.167em"><tspan x="0" y="107">WD</tspan></text><text transform="translate(905 644)" fill="#0c0b0b" font-size="110" font-family="Inter-ExtraBold, Inter" font-weight="800"><tspan x="0" y="0">STORE</tspan></text></g></g></svg>