<svg xmlns="http://www.w3.org/2000/svg" xmlns:xlink="http://www.w3.org/1999/xlink" width="191.386" height="226.812" viewBox="0 0 191.386 226.812">
  <defs>
    <linearGradient id="linear-gradient" x1="0.5" x2="0.5" y2="1" gradientUnits="objectBoundingBox">
      <stop offset="0" stop-color="#e51515"/>
      <stop offset="1" stop-color="#730b0b"/>
    </linearGradient>
    <linearGradient id="linear-gradient-2" x1="0.5" x2="0.5" y2="1" gradientUnits="objectBoundingBox">
      <stop offset="0" stop-color="maroon"/>
      <stop offset="1" stop-color="#cb0303"/>
    </linearGradient>
    <filter id="Path_10" x="0" y="25.75" width="118.677" height="184.297" filterUnits="userSpaceOnUse">
      <feOffset dy="3" input="SourceAlpha"/>
      <feGaussianBlur stdDeviation="3" result="blur"/>
      <feFlood flood-opacity="0.549"/>
      <feComposite operator="in" in2="blur"/>
      <feComposite in="SourceGraphic"/>
    </filter>
    <filter id="Path_13" x="72.709" y="22.765" width="118.677" height="184.297" filterUnits="userSpaceOnUse">
      <feOffset dy="3" input="SourceAlpha"/>
      <feGaussianBlur stdDeviation="3" result="blur-2"/>
      <feFlood flood-opacity="0.38"/>
      <feComposite operator="in" in2="blur-2"/>
      <feComposite in="SourceGraphic"/>
    </filter>
    <linearGradient id="linear-gradient-4" x1="0.5" x2="0.5" y2="1" gradientUnits="objectBoundingBox">
      <stop offset="0" stop-color="#500303"/>
      <stop offset="1" stop-color="#e30404"/>
    </linearGradient>
  </defs>
  <g id="wdcoders2" transform="translate(-1437.937 -140.8)">
    <path id="Path_12" data-name="Path 12" d="M1541.364,130.8l8.989,15.5h-14.382Z" transform="translate(6.249 41.75)" fill="#470303"/>
    <path id="Path_15" data-name="Path 15" d="M5.393,0l8.989,15.5H0Z" transform="translate(1525.039 335.862) rotate(180)" fill="#470303"/>
    <path id="Subtraction_2" data-name="Subtraction 2" d="M150,140H0V0H150V140ZM22.992,21v95H127.008V21Z" transform="translate(1459.587 180.535)" fill="url(#linear-gradient)"/>
    <g transform="matrix(1, 0, 0, 1, 1437.94, 140.8)" filter="url(#Path_10)">
      <path id="Path_10-2" data-name="Path 10" d="M1488.173,130.8l-51.237,166.3h51.237l49.44-166.3Z" transform="translate(-1427.94 -99.05)" fill="url(#linear-gradient-2)"/>
    </g>
    <g transform="matrix(1, 0, 0, 1, 1437.94, 140.8)" filter="url(#Path_13)">
      <path id="Path_13-2" data-name="Path 13" d="M51.237,0,0,166.3H51.237L100.677,0Z" transform="translate(182.39 195.06) rotate(180)" fill="url(#linear-gradient-2)"/>
    </g>
    <path id="Path_11" data-name="Path 11" d="M1487.98,303.644l66.539,28.765-117.583-28.765Z" transform="translate(10 35.203)" fill="url(#linear-gradient-4)"/>
    <path id="Path_14" data-name="Path 14" d="M51.044,0l66.539,28.765L0,0Z" transform="translate(1620.323 169.565) rotate(180)" fill="url(#linear-gradient-4)"/>
  </g>
</svg>
