<?xml version="1.0" encoding="UTF-8"?>
<svg id="Layer_2" data-name="Layer 2" xmlns="http://www.w3.org/2000/svg" xmlns:xlink="http://www.w3.org/1999/xlink" viewBox="0 0 88.5 88.5">
  <defs>
    <style>
      .cls-1 {
        fill: #fff;
      }

      .cls-2 {
        fill: url(#Degradado_sin_nombre_2003);
      }
    </style>
    <linearGradient id="Degradado_sin_nombre_2003" data-name="Degradado sin nombre 2003" x1="44.25" y1="0" x2="44.25" y2="88.5" gradientUnits="userSpaceOnUse">
      <stop offset="0" stop-color="#ff0094"/>
      <stop offset=".16" stop-color="#c80795"/>
      <stop offset=".39" stop-color="#821197"/>
      <stop offset=".6" stop-color="#4a1999"/>
      <stop offset=".78" stop-color="#211f9a"/>
      <stop offset=".92" stop-color="#09229b"/>
      <stop offset="1" stop-color="#00249c"/>
    </linearGradient>
  </defs>
  <g id="Layer_1-2" data-name="Layer 1">
    <g>
      <rect class="cls-2" width="88.5" height="88.5"/>
      <path class="cls-1" d="m4.54,4.54v79.42h79.42V4.54H4.54Zm76.8,76.8H7.16V7.16h74.19v74.19Z"/>
      <path class="cls-1" d="m58.81,19.03h-5.22l-2.62,4.35-19.15,31.79-1.2-1.96,19.15-31.79,1.44-2.39h-8.31l-16.46,27.33-1.2-1.96,15.28-25.38h-10.84l-9.69,16.79-4.87,8.44,5,8.66,1.16,2.02,3.71,6.43.35.62,1.16,2.01,3.17,5.48h2.67l4.08-6.77h0s.81-1.35.81-1.35l18.33-30.44,5.15-8.56-1.92-3.33Zm9.39,16.26h0s-1.3-2.25-1.3-2.25l-4.83-8.37-5.12,8.5-16.97,28.18-2.17,3.61h0s-2.72,4.51-2.72,4.51h23.71l4.68-8.11,5.19-8.99,4.69-8.12-5.17-8.96Zm-15.7,26.06h-2.65l12.07-20.05,1.34,2.19-10.76,17.86Z"/>
    </g>
  </g>
</svg>